<svg xmlns="http://www.w3.org/2000/svg" version="1.1" xmlns:xlink="http://www.w3.org/1999/xlink" xmlns:svgjs="http://svgjs.dev/svgjs" width="1500" height="1500" viewBox="0 0 1500 1500"><rect width="1500" height="1500" fill="#ffffff"></rect><g transform="matrix(0.6666666666666666,0,0,0.6666666666666666,250.58985215198976,373.9713900134953)"><svg viewBox="0 0 328 247" data-background-color="#ffffff" preserveAspectRatio="xMidYMid meet" height="1129" width="1500" xmlns="http://www.w3.org/2000/svg" xmlns:xlink="http://www.w3.org/1999/xlink"><g id="tight-bounds" transform="matrix(1,0,0,1,-0.19347150585264217,-0.09999999999999432)"><svg viewBox="0 0 328.3869430117053 247.2" height="247.2" width="328.3869430117053"><g><svg viewBox="0 0 397.4975999999999 299.2244631251903" height="247.2" width="328.3869430117053"><g><rect width="397.4975999999999" height="6.621238740072398" x="0" y="166.9842222334847" fill="#89939e" opacity="1" stroke-width="0" stroke="transparent" fill-opacity="1" class="rect-qz-0" data-fill-palette-color="secondary" rx="1%" id="qz-0" data-palette-color="#89939e"></rect></g><g transform="matrix(1,0,0,1,0.9887999999999693,190.9385466805529)"><svg viewBox="0 0 395.52 108.2859164446374" height="108.2859164446374" width="395.52"><g id="textblocktransform"><svg viewBox="0 0 395.52 108.2859164446374" height="108.2859164446374" width="395.52" id="textblock"><g><svg viewBox="0 0 395.52 73.42163416440386" height="73.42163416440386" width="395.52"><g transform="matrix(1,0,0,1,0,0)"><svg width="395.52" viewBox="0.5 -37 202.53 37.6" height="73.42163416440386" data-palette-color="#89939e"><path d="M13.1 0.6L13.1 0.6Q9.35 0.6 7.18-1.88 5-4.35 5-8.95L5-8.95 5-21.15 0.5-21.15 0.5-25.05 5.1-25.05 6.05-33.25 9.5-33.25 9.5-25.05 16.7-25.05 16.7-21.15 9.5-21.15 9.5-8.6Q9.5-5.7 10.73-4.55 11.95-3.4 13.65-3.4L13.65-3.4Q14.9-3.4 16.03-3.8 17.15-4.2 18.1-4.75L18.1-4.75 19.35-1.15Q18.35-0.55 16.65 0.03 14.95 0.6 13.1 0.6ZM28.35 0L23.85 0 23.85-26 28.2-26 28.2-20.35Q28.85-22 29.95-23.43 31.05-24.85 32.7-25.73 34.35-26.6 36.55-26.6L36.55-26.6Q37.3-26.6 38.05-26.53 38.8-26.45 39.3-26.3L39.3-26.3 37.95-21.65Q37-22.05 35.7-22.05L35.7-22.05Q33.85-22.05 32.17-21 30.5-19.95 29.42-17.75 28.35-15.55 28.35-12.15L28.35-12.15 28.35 0ZM52.25 0.6L52.25 0.6Q49 0.6 46.34-1.05 43.7-2.7 42.12-5.73 40.55-8.75 40.55-12.85L40.55-12.85Q40.55-16.75 42.12-19.85 43.7-22.95 46.47-24.78 49.25-26.6 52.84-26.6L52.84-26.6Q55.09-26.6 56.92-25.83 58.75-25.05 60.09-23.9L60.09-23.9 60.09-26 64.2-26 64.2-6.3Q64.2-4.4 65.12-3.83 66.05-3.25 67.15-3.25L67.15-3.25 66.2 0.25Q61.4 0.25 60.4-3.65L60.4-3.65Q59.25-2.05 57.27-0.73 55.3 0.6 52.25 0.6ZM53.25-3.4L53.25-3.4Q55.15-3.4 56.84-4.33 58.55-5.25 59.7-6.65L59.7-6.65 59.7-20.6Q58.34-21.55 56.72-22.13 55.09-22.7 53.3-22.7L53.3-22.7Q50.9-22.7 49.07-21.48 47.25-20.25 46.2-18.07 45.15-15.9 45.15-13L45.15-13Q45.15-10.2 46.2-8.03 47.25-5.85 49.09-4.63 50.95-3.4 53.25-3.4ZM83.79 0L79.09 0 68.64-24.8 72.74-26.5 81.59-5.1 90.44-26.5 94.29-24.8 83.79 0ZM108.19 0.6L108.19 0.6Q102.59 0.6 99.32-2.98 96.04-6.55 96.04-13L96.04-13Q96.04-16.9 97.52-19.98 98.99-23.05 101.64-24.83 104.29-26.6 107.79-26.6L107.79-26.6Q111.54-26.6 114.02-24.98 116.49-23.35 117.74-20.6 118.99-17.85 118.99-14.55L118.99-14.55Q118.99-12.8 118.84-11.15L118.84-11.15 100.64-11.15Q101.09-7.5 103.19-5.45 105.29-3.4 108.74-3.4L108.74-3.4Q110.99-3.4 112.79-3.88 114.59-4.35 116.24-5.1L116.24-5.1 117.29-1.25Q115.49-0.45 113.24 0.08 110.99 0.6 108.19 0.6ZM100.59-14.8L100.59-14.8 114.84-14.8Q114.84-18.6 112.94-20.65 111.04-22.7 107.69-22.7L107.69-22.7Q104.79-22.7 102.89-20.68 100.99-18.65 100.59-14.8ZM132.89 0.6L132.89 0.6Q130.59 0.6 128.74-0.28 126.89-1.15 125.81-3.1 124.74-5.05 124.74-8.15L124.74-8.15 124.74-37 129.24-37 129.24-8.6Q129.24-5.9 130.36-4.6 131.49-3.3 133.49-3.3L133.49-3.3Q134.44-3.3 135.36-3.53 136.29-3.75 136.94-4.05L136.94-4.05 138.04-0.4Q137.14 0 135.81 0.3 134.49 0.6 132.89 0.6ZM146.79 0L142.29 0 142.29-26 146.79-26 146.79 0ZM144.54-30.45L144.54-30.45Q143.24-30.45 142.31-31.4 141.39-32.35 141.39-33.6L141.39-33.6Q141.39-35.05 142.24-35.9 143.09-36.75 144.54-36.75L144.54-36.75Q145.84-36.75 146.76-35.83 147.69-34.9 147.69-33.6L147.69-33.6Q147.69-32.2 146.84-31.33 145.99-30.45 144.54-30.45ZM164.73 0.6L164.73 0.6Q161.48 0.6 158.83-1.05 156.18-2.7 154.61-5.73 153.03-8.75 153.03-12.85L153.03-12.85Q153.03-16.75 154.61-19.85 156.18-22.95 158.96-24.78 161.73-26.6 165.33-26.6L165.33-26.6Q167.58-26.6 169.41-25.83 171.23-25.05 172.58-23.9L172.58-23.9 172.58-26 176.68-26 176.68-6.3Q176.68-4.4 177.61-3.83 178.53-3.25 179.63-3.25L179.63-3.25 178.68 0.25Q173.88 0.25 172.88-3.65L172.88-3.65Q171.73-2.05 169.76-0.73 167.78 0.6 164.73 0.6ZM165.73-3.4L165.73-3.4Q167.63-3.4 169.33-4.33 171.03-5.25 172.18-6.65L172.18-6.65 172.18-20.6Q170.83-21.55 169.21-22.13 167.58-22.7 165.78-22.7L165.78-22.7Q163.38-22.7 161.56-21.48 159.73-20.25 158.68-18.07 157.63-15.9 157.63-13L157.63-13Q157.63-10.2 158.68-8.03 159.73-5.85 161.58-4.63 163.43-3.4 165.73-3.4ZM192.63 0.6L192.63 0.6Q189.68 0.6 187.31-0.15 184.93-0.9 183.38-2.1L183.38-2.1 185.28-5.85Q186.58-4.75 188.56-4.03 190.53-3.3 192.78-3.3L192.78-3.3Q195.58-3.3 197.01-4.23 198.43-5.15 198.43-6.6L198.43-6.6Q198.43-7.65 197.91-8.45 197.38-9.25 195.98-10.03 194.58-10.8 191.93-11.7L191.93-11.7Q188.28-12.95 186.46-14.68 184.63-16.4 184.63-19.45L184.63-19.45Q184.63-22.45 187.26-24.53 189.88-26.6 194.53-26.6L194.53-26.6Q197.03-26.6 198.98-26.08 200.93-25.55 202.48-24.75L202.48-24.75 201.23-21.05Q199.88-21.85 198.16-22.35 196.43-22.85 194.33-22.85L194.33-22.85Q191.73-22.85 190.38-21.8 189.03-20.75 189.03-19.5L189.03-19.5Q189.03-18.3 190.08-17.45 191.13-16.6 194.18-15.6L194.18-15.6Q199.13-13.95 201.08-11.95 203.03-9.95 203.03-6.95L203.03-6.95Q203.03-3.45 200.21-1.43 197.38 0.6 192.63 0.6Z" opacity="1" transform="matrix(1,0,0,1,0,0)" fill="#89939e" class="wordmark-text-0" data-fill-palette-color="primary" id="text-0"></path></svg></g></svg></g><g transform="matrix(1,0,0,1,0,90.75471987139966)"><svg viewBox="0 0 395.52 17.53119657323773" height="17.53119657323773" width="395.52"><g transform="matrix(1,0,0,1,0,0)"><svg width="395.52" viewBox="1 -37 1073.9 47.6" height="17.53119657323773" data-palette-color="#89939e"><path d="M14.15 0L9.5 0 1-34.9 5.45-34.9 9.2-18.1 12.1-5.05 12.2-5.05 15.45-18.1 19.85-34.9 24.65-34.9 28.9-18.1 32.15-5.1 32.3-5.1 35.3-18.1 39.25-34.9 43.55-34.9 34.6 0 29.95 0 25.4-17.4 22.2-30.2 22.1-30.2 18.8-17.4 14.15 0ZM48.8 0L48.8-37 52.8-37 52.8-21.6 53-21.6Q53.95-23.8 55.68-25.1 57.4-26.4 60.3-26.4L60.3-26.4Q64.3-26.4 66.63-23.83 68.95-21.25 68.95-16.55L68.95-16.55 68.95 0 64.95 0 64.95-15.85Q64.95-22.8 59.1-22.8L59.1-22.8Q57.9-22.8 56.78-22.5 55.65-22.2 54.75-21.6 53.85-21 53.33-20.08 52.8-19.15 52.8-17.9L52.8-17.9 52.8 0 48.8 0ZM86.9 0.6L86.9 0.6Q84.25 0.6 82.13-0.35 80-1.3 78.48-3.08 76.95-4.85 76.13-7.33 75.3-9.8 75.3-12.9L75.3-12.9Q75.3-15.95 76.13-18.45 76.95-20.95 78.48-22.73 80-24.5 82.13-25.45 84.25-26.4 86.9-26.4L86.9-26.4Q89.5-26.4 91.55-25.45 93.6-24.5 95.05-22.83 96.5-21.15 97.28-18.85 98.05-16.55 98.05-13.8L98.05-13.8 98.05-11.9 79.5-11.9 79.5-10.7Q79.5-9.05 80.03-7.63 80.55-6.2 81.53-5.15 82.5-4.1 83.93-3.5 85.35-2.9 87.15-2.9L87.15-2.9Q89.6-2.9 91.43-4.05 93.25-5.2 94.25-7.35L94.25-7.35 97.1-5.3Q95.85-2.65 93.2-1.03 90.55 0.6 86.9 0.6ZM86.9-23.05L86.9-23.05Q85.25-23.05 83.9-22.48 82.55-21.9 81.58-20.85 80.6-19.8 80.05-18.38 79.5-16.95 79.5-15.25L79.5-15.25 79.5-14.9 93.75-14.9 93.75-15.45Q93.75-18.9 91.88-20.98 90-23.05 86.9-23.05ZM108.65 0L104.65 0 104.65-25.8 108.65-25.8 108.65-21.05 108.9-21.05Q109.6-22.9 111.4-24.35 113.2-25.8 116.35-25.8L116.35-25.8 117.9-25.8 117.9-21.8 115.55-21.8Q112.3-21.8 110.48-20.58 108.65-19.35 108.65-17.5L108.65-17.5 108.65 0ZM132.45 0.6L132.45 0.6Q129.8 0.6 127.68-0.35 125.55-1.3 124.03-3.08 122.5-4.85 121.68-7.33 120.85-9.8 120.85-12.9L120.85-12.9Q120.85-15.95 121.68-18.45 122.5-20.95 124.03-22.73 125.55-24.5 127.68-25.45 129.8-26.4 132.45-26.4L132.45-26.4Q135.05-26.4 137.1-25.45 139.15-24.5 140.6-22.83 142.05-21.15 142.83-18.85 143.6-16.55 143.6-13.8L143.6-13.8 143.6-11.9 125.05-11.9 125.05-10.7Q125.05-9.05 125.58-7.63 126.1-6.2 127.08-5.15 128.05-4.1 129.48-3.5 130.9-2.9 132.7-2.9L132.7-2.9Q135.15-2.9 136.98-4.05 138.8-5.2 139.8-7.35L139.8-7.35 142.65-5.3Q141.4-2.65 138.75-1.03 136.1 0.6 132.45 0.6ZM132.45-23.05L132.45-23.05Q130.8-23.05 129.45-22.48 128.1-21.9 127.13-20.85 126.15-19.8 125.6-18.38 125.05-16.95 125.05-15.25L125.05-15.25 125.05-14.9 139.3-14.9 139.3-15.45Q139.3-18.9 137.43-20.98 135.55-23.05 132.45-23.05ZM160.15 0L155.5 0 146.45-25.8 150.45-25.8 154.95-13 157.75-4.2 158-4.2 160.8-13 165.4-25.8 169.25-25.8 160.15 0ZM183.7 0.6L183.7 0.6Q181.05 0.6 178.93-0.35 176.8-1.3 175.28-3.08 173.75-4.85 172.93-7.33 172.1-9.8 172.1-12.9L172.1-12.9Q172.1-15.95 172.93-18.45 173.75-20.95 175.28-22.73 176.8-24.5 178.93-25.45 181.05-26.4 183.7-26.4L183.7-26.4Q186.3-26.4 188.35-25.45 190.4-24.5 191.85-22.83 193.3-21.15 194.08-18.85 194.85-16.55 194.85-13.8L194.85-13.8 194.85-11.9 176.3-11.9 176.3-10.7Q176.3-9.05 176.83-7.63 177.35-6.2 178.33-5.15 179.3-4.1 180.73-3.5 182.15-2.9 183.95-2.9L183.95-2.9Q186.4-2.9 188.23-4.05 190.05-5.2 191.05-7.35L191.05-7.35 193.9-5.3Q192.65-2.65 190-1.03 187.35 0.6 183.7 0.6ZM183.7-23.05L183.7-23.05Q182.05-23.05 180.7-22.48 179.35-21.9 178.38-20.85 177.4-19.8 176.85-18.38 176.3-16.95 176.3-15.25L176.3-15.25 176.3-14.9 190.55-14.9 190.55-15.45Q190.55-18.9 188.68-20.98 186.8-23.05 183.7-23.05ZM205.45 0L201.45 0 201.45-25.8 205.45-25.8 205.45-21.05 205.7-21.05Q206.4-22.9 208.2-24.35 210-25.8 213.15-25.8L213.15-25.8 214.7-25.8 214.7-21.8 212.35-21.8Q209.1-21.8 207.28-20.58 205.45-19.35 205.45-17.5L205.45-17.5 205.45 0ZM241.25-8.25L247.5-25.8 251.45-25.8 239.9 6Q239.45 7.15 239 7.93 238.55 8.7 237.9 9.15 237.25 9.6 236.28 9.8 235.3 10 233.9 10L233.9 10 231.85 10 231.85 6.5 235.9 6.5 237.85 1 228.2-25.8 232.2-25.8 238.4-8.25 239.6-4.05 239.85-4.05 241.25-8.25ZM266.05 0.6L266.05 0.6Q263.45 0.6 261.3-0.35 259.15-1.3 257.63-3.08 256.1-4.85 255.25-7.33 254.4-9.8 254.4-12.9L254.4-12.9Q254.4-15.95 255.25-18.45 256.1-20.95 257.63-22.73 259.15-24.5 261.3-25.45 263.45-26.4 266.05-26.4L266.05-26.4Q268.65-26.4 270.78-25.45 272.9-24.5 274.45-22.73 276-20.95 276.85-18.45 277.7-15.95 277.7-12.9L277.7-12.9Q277.7-9.8 276.85-7.33 276-4.85 274.45-3.08 272.9-1.3 270.78-0.35 268.65 0.6 266.05 0.6ZM266.05-2.95L266.05-2.95Q269.3-2.95 271.35-4.95 273.4-6.95 273.4-11.05L273.4-11.05 273.4-14.75Q273.4-18.85 271.35-20.85 269.3-22.85 266.05-22.85L266.05-22.85Q262.8-22.85 260.75-20.85 258.7-18.85 258.7-14.75L258.7-14.75 258.7-11.05Q258.7-6.95 260.75-4.95 262.8-2.95 266.05-2.95ZM300.2 0L300.2-4.2 300-4.2Q299.6-3.3 299.03-2.43 298.45-1.55 297.6-0.88 296.75-0.2 295.55 0.2 294.35 0.6 292.75 0.6L292.75 0.6Q288.75 0.6 286.4-1.98 284.05-4.55 284.05-9.25L284.05-9.25 284.05-25.8 288.05-25.8 288.05-9.95Q288.05-3 293.95-3L293.95-3Q295.15-3 296.28-3.3 297.4-3.6 298.28-4.2 299.15-4.8 299.68-5.73 300.2-6.65 300.2-7.95L300.2-7.95 300.2-25.8 304.2-25.8 304.2 0 300.2 0ZM341 0L341-4.2 340.8-4.2Q338.45 0.6 333.25 0.6L333.25 0.6Q330.85 0.6 328.9-0.35 326.95-1.3 325.58-3.05 324.2-4.8 323.48-7.3 322.75-9.8 322.75-12.9L322.75-12.9Q322.75-16 323.48-18.5 324.2-21 325.58-22.75 326.95-24.5 328.9-25.45 330.85-26.4 333.25-26.4L333.25-26.4Q335.95-26.4 337.88-25.23 339.8-24.05 340.8-21.6L340.8-21.6 341-21.6 341-37 345-37 345 0 341 0ZM334.35-3L334.35-3Q335.7-3 336.93-3.35 338.15-3.7 339.05-4.38 339.95-5.05 340.48-6.03 341-7 341-8.25L341-8.25 341-17.85Q341-18.9 340.48-19.83 339.95-20.75 339.05-21.4 338.15-22.05 336.93-22.43 335.7-22.8 334.35-22.8L334.35-22.8Q330.95-22.8 329-20.68 327.05-18.55 327.05-15.1L327.05-15.1 327.05-10.7Q327.05-7.25 329-5.13 330.95-3 334.35-3ZM357.5 0L353.5 0 353.5-25.8 357.5-25.8 357.5-21.05 357.75-21.05Q358.45-22.9 360.25-24.35 362.05-25.8 365.2-25.8L365.2-25.8 366.75-25.8 366.75-21.8 364.4-21.8Q361.15-21.8 359.33-20.58 357.5-19.35 357.5-17.5L357.5-17.5 357.5 0ZM381.3 0.6L381.3 0.6Q378.65 0.6 376.53-0.35 374.4-1.3 372.88-3.08 371.35-4.85 370.53-7.33 369.7-9.8 369.7-12.9L369.7-12.9Q369.7-15.95 370.53-18.45 371.35-20.95 372.88-22.73 374.4-24.5 376.53-25.45 378.65-26.4 381.3-26.4L381.3-26.4Q383.9-26.4 385.95-25.45 388-24.5 389.45-22.83 390.9-21.15 391.68-18.85 392.45-16.55 392.45-13.8L392.45-13.8 392.45-11.9 373.9-11.9 373.9-10.7Q373.9-9.05 374.43-7.63 374.95-6.2 375.93-5.15 376.9-4.1 378.33-3.5 379.75-2.9 381.55-2.9L381.55-2.9Q384-2.9 385.83-4.05 387.65-5.2 388.65-7.35L388.65-7.35 391.5-5.3Q390.25-2.65 387.6-1.03 384.95 0.6 381.3 0.6ZM381.3-23.05L381.3-23.05Q379.65-23.05 378.3-22.48 376.95-21.9 375.98-20.85 375-19.8 374.45-18.38 373.9-16.95 373.9-15.25L373.9-15.25 373.9-14.9 388.15-14.9 388.15-15.45Q388.15-18.9 386.28-20.98 384.4-23.05 381.3-23.05ZM420.05 0L417.8 0Q415.55 0 414.58-1.2 413.6-2.4 413.35-4.2L413.35-4.2 413.1-4.2Q412.25-1.8 410.3-0.6 408.35 0.6 405.65 0.6L405.65 0.6Q401.55 0.6 399.28-1.5 397-3.6 397-7.2L397-7.2Q397-10.85 399.68-12.8 402.35-14.75 408-14.75L408-14.75 413.1-14.75 413.1-17.3Q413.1-20.05 411.6-21.5 410.1-22.95 407-22.95L407-22.95Q404.65-22.95 403.08-21.9 401.5-20.85 400.45-19.1L400.45-19.1 398.05-21.35Q399.1-23.45 401.4-24.93 403.7-26.4 407.2-26.4L407.2-26.4Q411.9-26.4 414.5-24.1 417.1-21.8 417.1-17.7L417.1-17.7 417.1-3.5 420.05-3.5 420.05 0ZM406.3-2.8L406.3-2.8Q407.8-2.8 409.05-3.15 410.3-3.5 411.2-4.15 412.1-4.8 412.6-5.65 413.1-6.5 413.1-7.5L413.1-7.5 413.1-11.75 407.8-11.75Q404.35-11.75 402.78-10.75 401.2-9.75 401.2-7.85L401.2-7.85 401.2-6.8Q401.2-4.9 402.58-3.85 403.95-2.8 406.3-2.8ZM429.75 0L425.75 0 425.75-25.8 429.75-25.8 429.75-21.6 429.95-21.6Q430.4-22.6 430.98-23.48 431.55-24.35 432.38-25 433.2-25.65 434.3-26.03 435.4-26.4 436.9-26.4L436.9-26.4Q439.45-26.4 441.6-25.18 443.75-23.95 444.8-21.15L444.8-21.15 444.9-21.15Q445.6-23.25 447.53-24.83 449.45-26.4 452.75-26.4L452.75-26.4Q456.7-26.4 458.93-23.83 461.15-21.25 461.15-16.55L461.15-16.55 461.15 0 457.15 0 457.15-15.85Q457.15-19.3 455.8-21.05 454.45-22.8 451.5-22.8L451.5-22.8Q450.3-22.8 449.23-22.5 448.15-22.2 447.3-21.6 446.45-21 445.95-20.08 445.45-19.15 445.45-17.9L445.45-17.9 445.45 0 441.45 0 441.45-15.85Q441.45-19.3 440.1-21.05 438.75-22.8 435.9-22.8L435.9-22.8Q434.7-22.8 433.6-22.5 432.5-22.2 431.65-21.6 430.8-21 430.28-20.08 429.75-19.15 429.75-17.9L429.75-17.9 429.75 0ZM491.9 0L486.9 0Q484.8 0 483.73-1.18 482.65-2.35 482.65-4.25L482.65-4.25 482.65-22.3 478.4-22.3 478.4-25.8 480.8-25.8Q482.1-25.8 482.58-26.33 483.05-26.85 483.05-28.15L483.05-28.15 483.05-32.95 486.65-32.95 486.65-25.8 492.3-25.8 492.3-22.3 486.65-22.3 486.65-3.5 491.9-3.5 491.9 0ZM508.3 0.6L508.3 0.6Q505.7 0.6 503.55-0.35 501.4-1.3 499.88-3.08 498.35-4.85 497.5-7.33 496.65-9.8 496.65-12.9L496.65-12.9Q496.65-15.95 497.5-18.45 498.35-20.95 499.88-22.73 501.4-24.5 503.55-25.45 505.7-26.4 508.3-26.4L508.3-26.4Q510.9-26.4 513.03-25.45 515.15-24.5 516.7-22.73 518.25-20.95 519.1-18.45 519.95-15.95 519.95-12.9L519.95-12.9Q519.95-9.8 519.1-7.33 518.25-4.85 516.7-3.08 515.15-1.3 513.03-0.35 510.9 0.6 508.3 0.6ZM508.3-2.95L508.3-2.95Q511.55-2.95 513.6-4.95 515.65-6.95 515.65-11.05L515.65-11.05 515.65-14.75Q515.65-18.85 513.6-20.85 511.55-22.85 508.3-22.85L508.3-22.85Q505.05-22.85 503-20.85 500.95-18.85 500.95-14.75L500.95-14.75 500.95-11.05Q500.95-6.95 503-4.95 505.05-2.95 508.3-2.95ZM560.1 2.85L560.1 2.85Q560.1 6.85 556.98 8.72 553.85 10.6 547.6 10.6L547.6 10.6Q541.55 10.6 538.9 8.95 536.25 7.3 536.25 4.25L536.25 4.25Q536.25 2.15 537.35 0.98 538.45-0.2 540.35-0.75L540.35-0.75 540.35-1.3Q538.05-2.4 538.05-4.9L538.05-4.9Q538.05-6.85 539.3-7.88 540.55-8.9 542.5-9.4L542.5-9.4 542.5-9.6Q540.2-10.7 538.93-12.75 537.65-14.8 537.65-17.5L537.65-17.5Q537.65-19.45 538.35-21.1 539.05-22.75 540.33-23.93 541.6-25.1 543.38-25.75 545.15-26.4 547.35-26.4L547.35-26.4Q550.1-26.4 552.25-25.4L552.25-25.4 552.25-25.85Q552.25-27.35 552.95-28.33 553.65-29.3 555.25-29.3L555.25-29.3 559.1-29.3 559.1-25.8 554.2-25.8 554.2-24.15Q555.6-22.95 556.38-21.28 557.15-19.6 557.15-17.5L557.15-17.5Q557.15-15.55 556.45-13.9 555.75-12.25 554.48-11.08 553.2-9.9 551.4-9.25 549.6-8.6 547.4-8.6L547.4-8.6Q546.15-8.6 544.9-8.85L544.9-8.85Q543.6-8.5 542.55-7.83 541.5-7.15 541.5-5.95L541.5-5.95Q541.5-4.8 542.6-4.4 543.7-4 545.45-4L545.45-4 550.95-4Q555.75-4 557.93-2.18 560.1-0.35 560.1 2.85ZM556.35 3.15L556.35 3.15Q556.35 1.6 555.18 0.68 554-0.25 551-0.25L551-0.25 542.4-0.25Q540 0.85 540 3.25L540 3.25Q540 4.95 541.28 6.15 542.55 7.35 545.6 7.35L545.6 7.35 549.3 7.35Q552.65 7.35 554.5 6.3 556.35 5.25 556.35 3.15ZM547.4-11.8L547.4-11.8Q549.95-11.8 551.45-13.03 552.95-14.25 552.95-16.8L552.95-16.8 552.95-18.2Q552.95-20.75 551.45-21.98 549.95-23.2 547.4-23.2L547.4-23.2Q544.85-23.2 543.35-21.98 541.85-20.75 541.85-18.2L541.85-18.2 541.85-16.8Q541.85-14.25 543.35-13.03 544.85-11.8 547.4-11.8ZM574.2 0.6L574.2 0.6Q571.6 0.6 569.45-0.35 567.3-1.3 565.78-3.08 564.25-4.85 563.4-7.33 562.55-9.8 562.55-12.9L562.55-12.9Q562.55-15.95 563.4-18.45 564.25-20.95 565.78-22.73 567.3-24.5 569.45-25.45 571.6-26.4 574.2-26.4L574.2-26.4Q576.8-26.4 578.93-25.45 581.05-24.5 582.6-22.73 584.15-20.95 585-18.45 585.85-15.95 585.85-12.9L585.85-12.9Q585.85-9.8 585-7.33 584.15-4.85 582.6-3.08 581.05-1.3 578.93-0.35 576.8 0.6 574.2 0.6ZM574.2-2.95L574.2-2.95Q577.45-2.95 579.5-4.95 581.55-6.95 581.55-11.05L581.55-11.05 581.55-14.75Q581.55-18.85 579.5-20.85 577.45-22.85 574.2-22.85L574.2-22.85Q570.95-22.85 568.9-20.85 566.85-18.85 566.85-14.75L566.85-14.75 566.85-11.05Q566.85-6.95 568.9-4.95 570.95-2.95 574.2-2.95ZM594-5.85L594-5.85Q595.6-5.85 596.33-5.03 597.05-4.2 597.05-2.9L597.05-2.9 597.05-2.2Q597.05-0.15 595.85 2.33 594.65 4.8 592.5 6.65L592.5 6.65 589.15 6.65Q590.65 5.05 591.58 3.63 592.5 2.2 592.9 0.45L592.9 0.45Q591.9 0.2 591.43-0.5 590.95-1.2 590.95-2.2L590.95-2.2 590.95-2.9Q590.95-4.2 591.68-5.03 592.4-5.85 594-5.85ZM624.65 0L621.1 0Q619 0 617.93-1.18 616.85-2.35 616.85-4.15L616.85-4.15 616.85-37 620.85-37 620.85-3.5 624.65-3.5 624.65 0ZM640.15 0.6L640.15 0.6Q637.5 0.6 635.38-0.35 633.25-1.3 631.73-3.08 630.2-4.85 629.38-7.33 628.55-9.8 628.55-12.9L628.55-12.9Q628.55-15.95 629.38-18.45 630.2-20.95 631.73-22.73 633.25-24.5 635.38-25.45 637.5-26.4 640.15-26.4L640.15-26.4Q642.75-26.4 644.8-25.45 646.85-24.5 648.3-22.83 649.75-21.15 650.53-18.85 651.3-16.55 651.3-13.8L651.3-13.8 651.3-11.9 632.75-11.9 632.75-10.7Q632.75-9.05 633.28-7.63 633.8-6.2 634.78-5.15 635.75-4.1 637.18-3.5 638.6-2.9 640.4-2.9L640.4-2.9Q642.85-2.9 644.68-4.05 646.5-5.2 647.5-7.35L647.5-7.35 650.35-5.3Q649.1-2.65 646.45-1.03 643.8 0.6 640.15 0.6ZM640.15-23.05L640.15-23.05Q638.5-23.05 637.15-22.48 635.8-21.9 634.83-20.85 633.85-19.8 633.3-18.38 632.75-16.95 632.75-15.25L632.75-15.25 632.75-14.9 647-14.9 647-15.45Q647-18.9 645.13-20.98 643.25-23.05 640.15-23.05ZM668.6 0L663.6 0Q661.5 0 660.43-1.18 659.35-2.35 659.35-4.25L659.35-4.25 659.35-22.3 655.1-22.3 655.1-25.8 657.5-25.8Q658.8-25.8 659.28-26.33 659.75-26.85 659.75-28.15L659.75-28.15 659.75-32.95 663.35-32.95 663.35-25.8 669-25.8 669-22.3 663.35-22.3 663.35-3.5 668.6-3.5 668.6 0ZM679.05-23L675.45-23 675.45-37 679.05-37 679.05-23ZM695.3 0.6L695.3 0.6Q691.7 0.6 689.28-0.78 686.85-2.15 685.1-4.45L685.1-4.45 687.95-6.75Q689.45-4.85 691.3-3.83 693.15-2.8 695.6-2.8L695.6-2.8Q698.15-2.8 699.58-3.9 701-5 701-7L701-7Q701-8.5 700.03-9.58 699.05-10.65 696.5-11.05L696.5-11.05 694.45-11.35Q692.65-11.6 691.15-12.13 689.65-12.65 688.53-13.53 687.4-14.4 686.78-15.7 686.15-17 686.15-18.8L686.15-18.8Q686.15-20.7 686.85-22.13 687.55-23.55 688.78-24.5 690-25.45 691.7-25.93 693.4-26.4 695.35-26.4L695.35-26.4Q698.5-26.4 700.63-25.3 702.75-24.2 704.35-22.25L704.35-22.25 701.7-19.85Q700.85-21.05 699.2-22.03 697.55-23 695.05-23L695.05-23Q692.55-23 691.28-21.93 690-20.85 690-19L690-19Q690-17.1 691.28-16.25 692.55-15.4 694.95-15L694.95-15 696.95-14.7Q701.25-14.05 703.05-12.23 704.85-10.4 704.85-7.45L704.85-7.45Q704.85-3.7 702.3-1.55 699.75 0.6 695.3 0.6ZM727.7 0L723.7 0 723.7-25.8 727.7-25.8 727.7-21.6 727.9-21.6Q728.35-22.6 728.93-23.48 729.5-24.35 730.33-25 731.15-25.65 732.25-26.03 733.35-26.4 734.85-26.4L734.85-26.4Q737.4-26.4 739.55-25.18 741.7-23.95 742.75-21.15L742.75-21.15 742.85-21.15Q743.55-23.25 745.48-24.83 747.4-26.4 750.7-26.4L750.7-26.4Q754.65-26.4 756.88-23.83 759.1-21.25 759.1-16.55L759.1-16.55 759.1 0 755.1 0 755.1-15.85Q755.1-19.3 753.75-21.05 752.4-22.8 749.45-22.8L749.45-22.8Q748.25-22.8 747.18-22.5 746.1-22.2 745.25-21.6 744.4-21 743.9-20.08 743.4-19.15 743.4-17.9L743.4-17.9 743.4 0 739.4 0 739.4-15.85Q739.4-19.3 738.05-21.05 736.7-22.8 733.85-22.8L733.85-22.8Q732.65-22.8 731.55-22.5 730.45-22.2 729.6-21.6 728.75-21 728.23-20.08 727.7-19.15 727.7-17.9L727.7-17.9 727.7 0ZM788.35 0L786.1 0Q783.85 0 782.88-1.2 781.9-2.4 781.65-4.2L781.65-4.2 781.4-4.2Q780.55-1.8 778.6-0.6 776.65 0.6 773.95 0.6L773.95 0.6Q769.85 0.6 767.58-1.5 765.3-3.6 765.3-7.2L765.3-7.2Q765.3-10.85 767.98-12.8 770.65-14.75 776.3-14.75L776.3-14.75 781.4-14.75 781.4-17.3Q781.4-20.05 779.9-21.5 778.4-22.95 775.3-22.95L775.3-22.95Q772.95-22.95 771.38-21.9 769.8-20.85 768.75-19.1L768.75-19.1 766.35-21.35Q767.4-23.45 769.7-24.93 772-26.4 775.5-26.4L775.5-26.4Q780.2-26.4 782.8-24.1 785.4-21.8 785.4-17.7L785.4-17.7 785.4-3.5 788.35-3.5 788.35 0ZM774.6-2.8L774.6-2.8Q776.1-2.8 777.35-3.15 778.6-3.5 779.5-4.15 780.4-4.8 780.9-5.65 781.4-6.5 781.4-7.5L781.4-7.5 781.4-11.75 776.1-11.75Q772.65-11.75 771.08-10.75 769.5-9.75 769.5-7.85L769.5-7.85 769.5-6.8Q769.5-4.9 770.88-3.85 772.25-2.8 774.6-2.8ZM794.05 0L794.05-37 798.05-37 798.05-13.55 798.25-13.55 802.2-17.95 809.5-25.8 814.35-25.8 804.8-15.6 815.3 0 810.45 0 801.9-13.15 798.05-9.2 798.05 0 794.05 0ZM829.25 0.6L829.25 0.6Q826.6 0.6 824.48-0.35 822.35-1.3 820.83-3.08 819.3-4.85 818.48-7.33 817.65-9.8 817.65-12.9L817.65-12.9Q817.65-15.95 818.48-18.45 819.3-20.95 820.83-22.73 822.35-24.5 824.48-25.45 826.6-26.4 829.25-26.4L829.25-26.4Q831.85-26.4 833.9-25.45 835.95-24.5 837.4-22.83 838.85-21.15 839.63-18.85 840.4-16.55 840.4-13.8L840.4-13.8 840.4-11.9 821.85-11.9 821.85-10.7Q821.85-9.05 822.38-7.63 822.9-6.2 823.88-5.15 824.85-4.1 826.28-3.5 827.7-2.9 829.5-2.9L829.5-2.9Q831.95-2.9 833.78-4.05 835.6-5.2 836.6-7.35L836.6-7.35 839.45-5.3Q838.2-2.65 835.55-1.03 832.9 0.6 829.25 0.6ZM829.25-23.05L829.25-23.05Q827.6-23.05 826.25-22.48 824.9-21.9 823.93-20.85 822.95-19.8 822.4-18.38 821.85-16.95 821.85-15.25L821.85-15.25 821.85-14.9 836.1-14.9 836.1-15.45Q836.1-18.9 834.23-20.98 832.35-23.05 829.25-23.05ZM860.8-31.85L860.8-31.85Q859.5-31.85 858.93-32.48 858.35-33.1 858.35-34.1L858.35-34.1 858.35-34.75Q858.35-35.75 858.93-36.38 859.5-37 860.8-37L860.8-37Q862.1-37 862.68-36.38 863.25-35.75 863.25-34.75L863.25-34.75 863.25-34.1Q863.25-33.1 862.68-32.48 862.1-31.85 860.8-31.85ZM858.8 0L858.8-25.8 862.8-25.8 862.8 0 858.8 0ZM882 0L877 0Q874.9 0 873.83-1.18 872.75-2.35 872.75-4.25L872.75-4.25 872.75-22.3 868.5-22.3 868.5-25.8 870.9-25.8Q872.2-25.8 872.68-26.33 873.15-26.85 873.15-28.15L873.15-28.15 873.15-32.95 876.75-32.95 876.75-25.8 882.4-25.8 882.4-22.3 876.75-22.3 876.75-3.5 882-3.5 882 0ZM921.65 0L919.4 0Q917.15 0 916.18-1.2 915.2-2.4 914.95-4.2L914.95-4.2 914.7-4.2Q913.85-1.8 911.9-0.6 909.95 0.6 907.25 0.6L907.25 0.6Q903.15 0.6 900.88-1.5 898.6-3.6 898.6-7.2L898.6-7.2Q898.6-10.85 901.28-12.8 903.95-14.75 909.6-14.75L909.6-14.75 914.7-14.75 914.7-17.3Q914.7-20.05 913.2-21.5 911.7-22.95 908.6-22.95L908.6-22.95Q906.25-22.95 904.68-21.9 903.1-20.85 902.05-19.1L902.05-19.1 899.65-21.35Q900.7-23.45 903-24.93 905.3-26.4 908.8-26.4L908.8-26.4Q913.5-26.4 916.1-24.1 918.7-21.8 918.7-17.7L918.7-17.7 918.7-3.5 921.65-3.5 921.65 0ZM907.9-2.8L907.9-2.8Q909.4-2.8 910.65-3.15 911.9-3.5 912.8-4.15 913.7-4.8 914.2-5.65 914.7-6.5 914.7-7.5L914.7-7.5 914.7-11.75 909.4-11.75Q905.95-11.75 904.38-10.75 902.8-9.75 902.8-7.85L902.8-7.85 902.8-6.8Q902.8-4.9 904.18-3.85 905.55-2.8 907.9-2.8ZM943.15 0L939.15 0 939.15-25.8 943.15-25.8 943.15-21.05 943.4-21.05Q944.1-22.9 945.9-24.35 947.7-25.8 950.85-25.8L950.85-25.8 952.4-25.8 952.4-21.8 950.05-21.8Q946.8-21.8 944.98-20.58 943.15-19.35 943.15-17.5L943.15-17.5 943.15 0ZM966.95 0.6L966.95 0.6Q964.3 0.6 962.18-0.35 960.05-1.3 958.53-3.08 957-4.85 956.18-7.33 955.35-9.8 955.35-12.9L955.35-12.9Q955.35-15.95 956.18-18.45 957-20.95 958.53-22.73 960.05-24.5 962.18-25.45 964.3-26.4 966.95-26.4L966.95-26.4Q969.55-26.4 971.6-25.45 973.65-24.5 975.1-22.83 976.55-21.15 977.33-18.85 978.1-16.55 978.1-13.8L978.1-13.8 978.1-11.9 959.55-11.9 959.55-10.7Q959.55-9.05 960.08-7.63 960.6-6.2 961.58-5.15 962.55-4.1 963.98-3.5 965.4-2.9 967.2-2.9L967.2-2.9Q969.65-2.9 971.48-4.05 973.3-5.2 974.3-7.35L974.3-7.35 977.15-5.3Q975.9-2.65 973.25-1.03 970.6 0.6 966.95 0.6ZM966.95-23.05L966.95-23.05Q965.3-23.05 963.95-22.48 962.6-21.9 961.63-20.85 960.65-19.8 960.1-18.38 959.55-16.95 959.55-15.25L959.55-15.25 959.55-14.9 973.8-14.9 973.8-15.45Q973.8-18.9 971.93-20.98 970.05-23.05 966.95-23.05ZM1005.7 0L1003.45 0Q1001.2 0 1000.23-1.2 999.25-2.4 999-4.2L999-4.2 998.75-4.2Q997.9-1.8 995.95-0.6 994 0.6 991.3 0.6L991.3 0.6Q987.2 0.6 984.93-1.5 982.65-3.6 982.65-7.2L982.65-7.2Q982.65-10.85 985.33-12.8 988-14.75 993.65-14.75L993.65-14.75 998.75-14.75 998.75-17.3Q998.75-20.05 997.25-21.5 995.75-22.95 992.65-22.95L992.65-22.95Q990.3-22.95 988.73-21.9 987.15-20.85 986.1-19.1L986.1-19.1 983.7-21.35Q984.75-23.45 987.05-24.93 989.35-26.4 992.85-26.4L992.85-26.4Q997.55-26.4 1000.15-24.1 1002.75-21.8 1002.75-17.7L1002.75-17.7 1002.75-3.5 1005.7-3.5 1005.7 0ZM991.95-2.8L991.95-2.8Q993.45-2.8 994.7-3.15 995.95-3.5 996.85-4.15 997.75-4.8 998.25-5.65 998.75-6.5 998.75-7.5L998.75-7.5 998.75-11.75 993.45-11.75Q990-11.75 988.43-10.75 986.85-9.75 986.85-7.85L986.85-7.85 986.85-6.8Q986.85-4.9 988.23-3.85 989.6-2.8 991.95-2.8ZM1019.2 0L1015.65 0Q1013.55 0 1012.48-1.18 1011.4-2.35 1011.4-4.15L1011.4-4.15 1011.4-37 1015.4-37 1015.4-3.5 1019.2-3.5 1019.2 0ZM1027-31.85L1027-31.85Q1025.7-31.85 1025.13-32.48 1024.55-33.1 1024.55-34.1L1024.55-34.1 1024.55-34.75Q1024.55-35.75 1025.13-36.38 1025.7-37 1027-37L1027-37Q1028.3-37 1028.88-36.38 1029.45-35.75 1029.45-34.75L1029.45-34.75 1029.45-34.1Q1029.45-33.1 1028.88-32.48 1028.3-31.85 1027-31.85ZM1025 0L1025-25.8 1029-25.8 1029 0 1025 0ZM1048.2 0L1043.2 0Q1041.1 0 1040.03-1.18 1038.95-2.35 1038.95-4.25L1038.95-4.25 1038.95-22.3 1034.7-22.3 1034.7-25.8 1037.1-25.8Q1038.4-25.8 1038.88-26.33 1039.35-26.85 1039.35-28.15L1039.35-28.15 1039.35-32.95 1042.95-32.95 1042.95-25.8 1048.6-25.8 1048.6-22.3 1042.95-22.3 1042.95-3.5 1048.2-3.5 1048.2 0ZM1064.7-8.25L1070.95-25.8 1074.9-25.8 1063.35 6Q1062.9 7.15 1062.45 7.93 1062 8.7 1061.35 9.15 1060.7 9.6 1059.73 9.8 1058.75 10 1057.35 10L1057.35 10 1055.3 10 1055.3 6.5 1059.35 6.5 1061.3 1 1051.65-25.8 1055.65-25.8 1061.85-8.25 1063.05-4.05 1063.3-4.05 1064.7-8.25Z" opacity="1" transform="matrix(1,0,0,1,0,0)" fill="#89939e" class="slogan-text-1" data-fill-palette-color="secondary" id="text-1"></path></svg></g></svg></g></svg></g></svg></g><g transform="matrix(1,0,0,1,98.72889218247889,0)"><svg viewBox="0 0 200.03981563504215 149.6511365264889" height="149.6511365264889" width="200.03981563504215"><g><svg version="1.1" xmlns="http://www.w3.org/2000/svg" xmlns:xlink="http://www.w3.org/1999/xlink" x="8" y="0" viewBox="0 0.0002883044585872026 99.99897666262994 81.3137116955414" enable-background="new 0 0 100 81.314" xml:space="preserve" width="184.03981563504215" height="149.6511365264889" class="icon-icon-0" data-fill-palette-color="accent" id="icon-0"><path fill="#89939e" d="M39.74 2.399l-0.255-1.1c1.479-0.344 2.989-0.619 4.49-0.83l0.158 1.121C42.664 1.793 41.185 2.068 39.74 2.399z" data-fill-palette-color="accent"></path><path fill="#89939e" d="M61.917 2.333c-1.442-0.328-2.919-0.587-4.403-0.777l0.15-1.122c1.515 0.195 3.027 0.464 4.497 0.795L61.917 2.333z" data-fill-palette-color="accent"></path><path fill="#89939e" d="M48.589 1.184l-0.053-1.129c1.524-0.071 3.071-0.071 4.572-0.011l-0.042 1.132C51.574 1.114 50.075 1.114 48.589 1.184z" data-fill-palette-color="accent"></path><path fill="#89939e" d="M7.252 77.205c0.784 1.306 1.633 2.586 2.525 3.809l0.914-0.669c-0.872-1.192-1.704-2.441-2.473-3.722L7.252 77.205z" data-fill-palette-color="accent"></path><path fill="#89939e" d="M3.267 68.983c0.54 1.431 1.146 2.845 1.806 4.199l1.015-0.493c-0.642-1.324-1.236-2.707-1.766-4.102L3.267 68.983z" data-fill-palette-color="accent"></path><path fill="#89939e" d="M0.826 60.179c0.275 1.498 0.617 2.999 1.022 4.455l1.09-0.301c-0.396-1.427-0.731-2.893-1-4.358L0.826 60.179z" data-fill-palette-color="accent"></path><path fill="#89939e" d="M1.13 51.082H0c0.002 1.518 0.073 3.054 0.21 4.569l1.125-0.102C1.2 54.065 1.131 52.564 1.13 51.082z" data-fill-palette-color="accent"></path><path fill="#89939e" d="M1.906 42.183l-1.113-0.2c-0.264 1.493-0.467 3.015-0.6 4.535l1.125 0.096C1.449 45.129 1.645 43.637 1.906 42.183z" data-fill-palette-color="accent"></path><path fill="#89939e" d="M4.255 33.562l-1.059-0.393c-0.533 1.435-1.005 2.896-1.402 4.349l1.091 0.299C3.274 36.398 3.736 34.967 4.255 33.562z" data-fill-palette-color="accent"></path><path fill="#89939e" d="M8.117 25.509l-0.972-0.577c-0.776 1.302-1.502 2.658-2.16 4.031l1.019 0.485C6.647 28.111 7.358 26.781 8.117 25.509z" data-fill-palette-color="accent"></path><path fill="#89939e" d="M9.661 21.114l0.915 0.662c0.871-1.202 1.807-2.379 2.782-3.5l-0.853-0.743C11.506 18.677 10.55 19.885 9.661 21.114z" data-fill-palette-color="accent"></path><path fill="#89939e" d="M19.088 11.207c-1.179 0.943-2.336 1.959-3.433 3.01l0.782 0.821c1.075-1.034 2.207-2.031 3.357-2.949L19.088 11.207z" data-fill-palette-color="accent"></path><path fill="#89939e" d="M86.074 14.006c-1.095-1.042-2.256-2.048-3.447-2.998l-0.707 0.888c1.172 0.926 2.305 1.911 3.379 2.93L86.074 14.006z" data-fill-palette-color="accent"></path><path fill="#89939e" d="M27.234 7.137l-0.54-0.989c-1.324 0.715-2.641 1.509-3.916 2.357l0.628 0.936C24.651 8.614 25.939 7.842 27.234 7.137z" data-fill-palette-color="accent"></path><path fill="#89939e" d="M78.917 8.329c-1.266-0.831-2.585-1.616-3.935-2.336L74.454 6.99C75.764 7.69 77.059 8.46 78.3 9.272L78.917 8.329z" data-fill-palette-color="accent"></path><path fill="#89939e" d="M35.434 3.599l-0.354-1.072c-1.455 0.477-2.894 1.024-4.272 1.621l0.446 1.038C32.604 4.601 34.013 4.071 35.434 3.599z" data-fill-palette-color="accent"></path><path fill="#89939e" d="M70.862 4.023c-1.392-0.586-2.834-1.125-4.288-1.593l-0.345 1.077c1.423 0.455 2.831 0.981 4.191 1.559L70.862 4.023z" data-fill-palette-color="accent"></path><path fill="#89939e" d="M99.129 26.774l-2.716-2.711 1.117-9.237-1.241-1.23-3.197 7.139-1.85-1.846c-0.161-0.163-0.379-0.287-0.609-0.361l0.624-3.083-0.992-0.993-1.476 3.457-3.455 1.474 0.989 0.994 3.087-0.624c0.075 0.229 0.199 0.446 0.362 0.61l1.85 1.85-7.144 3.201 1.227 1.236 9.245-1.112 2.707 2.711c0.5 0.507 1.162 0.816 1.873 0.867 0.124 0 0.247-0.036 0.339-0.124 0.084-0.089 0.138-0.211 0.129-0.335C99.946 27.94 99.636 27.278 99.129 26.774z" data-fill-palette-color="accent"></path><path fill="#89939e" d="M51.09 15.112c-18.253 0-33.101 14.848-33.101 33.101 0 18.251 14.848 33.101 33.101 33.101 18.251 0 33.101-14.85 33.101-33.101C84.191 29.96 69.341 15.112 51.09 15.112zM78.073 53.609c0.601 0.607 0.87 1.167 0.991 1.774C75.867 67.848 64.537 77.089 51.09 77.089c-4.979 0-9.666-1.267-13.759-3.494 0.041-0.179 0.081-0.361 0.121-0.555 0.244-1.177 2.063-1.742 2.844-2.521 0.761-0.762 2.275-1.223 2.745-2.219 0.308-0.653-0.128-1.49 0.134-2.099 0.199-0.458 0.958-0.957 1.314-1.314 0.894-0.894 1.564-3.22 1.564-4.442-1.338 0-2.675 0-4.012 0-1.267 0-1.021-1.498-1.026-2.429-0.001-0.5 0.031-1.111-0.212-1.568-0.277-0.52-1.174-0.368-1.655-0.612-0.837-0.425-1.531-1.257-1.695-2.192-0.108-0.613-0.086-1.062-0.857-1.032-0.758 0.032-1.462 0.639-2.167 0.639-0.885 0-1.77 0-2.655 0-1.957 0-3.914 0-5.869 0 0 0.317-0.18 1.349 0.109 1.494 0.723 0.36 1.445 0.722 2.167 1.083 1.078 0.54 1.394 1.889 1.921 2.941 0.518 1.036 1.105 2.054 1.559 3.116 0.562 1.314 0.97 2.777 1.993 3.833 0.431 0.445 1.267 0.354 1.45 0.967 0.232 0.77-0.007 1.71-0.184 2.468-0.196 0.839-0.442 1.668-0.659 2.502-5.966-4.296-10.229-10.807-11.581-18.319 0.402-0.031 0.805-0.085 1.039-0.085 0.78 0 0.804-0.058 1.369-0.621 0.495-0.495 0.817-0.642 0.817-1.324 0-0.79 0-1.583 0-2.372 0.96 0.479 1.918 0.96 2.878 1.438 0.042-1.163 0.873-1.312 1.831-1.473 1.138-0.188 1.887-1.405 2.941-1.405 0.869 0 1.23 0.166 2.046 0.43 0.428 0.141 0.965 0.304 1.412 0.165 0.601-0.188 0.459-1.261 0.667-1.743 0.299-0.697 0.754-1.683 1.56-1.75 0.876-0.07 2.012-0.465 1.056-1.419-1.049-1.049-1.833-2.387-2.542-3.68-0.303-0.555-0.379-1.43-0.89-1.813-1.116-0.838-2.792 0.298-3.63 1.05-0.471 0.425 0.268 1.402-0.379 1.675-1.052 0.446-2.425 0.804-3.511 0.285-0.592-0.283-0.958-0.977-1.63-1.101-0.464-0.084-0.37-0.214-0.37-0.734 0-0.876 0-1.754 0-2.631 0-0.364 0.101-0.221 0.432-0.316 1.303-0.374 0.534-2.07 1.825-2.091 1.497-0.025 0.019-2.576-0.386-3.096-0.227-0.292-0.453-0.423-0.7-0.482 5.295-6.638 13.444-10.903 22.576-10.903 8.311 0 15.809 3.534 21.082 9.173-1.552 1.686-3.22 3.605-4.354 4.456-0.778 0.583-1.786 0.937-2.655 1.371-0.867 0.435-2.043 0.202-2.993 0.202-0.247 0-3.165-0.04-3.165 0.036 0 0.865 0.433 2.625-0.402 3.044-0.997 0.498-2.116 0.878-2.909 1.669-0.225 0.225-1.146 0.867-0.881 1.133 0.001 0.001 0.002 0.002 0.004 0.003-0.145-0.078-0.294-0.128-0.449-0.123-1.129 0.038-2.53 0.086-3.514 0.708-0.624 0.394-0.455 0.99-0.538 1.645-0.094 0.736-0.325 1.515-0.854 2.06-0.632 0.652-0.531 0.759-0.531 1.817 1.119-0.124 2.24-0.249 3.362-0.372 0.132-0.018 0.955-0.022 0.955-0.169 0-0.278-0.157-1.22 0.034-1.411 0.424-0.424 0.853-0.853 1.28-1.28 0.259-0.259 0.73 0.48 0.942 0.693 0.39 0.389 0.771 0.472 0.357 0.882-0.391 0.394-0.784 0.787-1.175 1.178 0.174 0 1.437 0.047 1.44-0.033 0.051-1.074 0.701-2.108 1.438-2.845 0.796-0.796 1.887-0.805 2.745-0.117 0.347 0.28 0.134 1.179 0.134 1.556 0 0.253-0.07 2.878 0.062 2.878 0.633 0 1.185 0.146 1.67-0.265 1.667-1.403 3.848-1.067 5.464-2.613 0.479 0.959 0.96 1.918 1.439 2.878-1.143 0.382-2.287 0.762-3.43 1.143-0.09 0.029-0.862 0.346-0.902 0.269-0.261-0.513-0.539-1.039-0.894-1.495-0.472-0.607-0.59-0.08-0.497 0.478 0.151 0.922 0.736 1.785 1.371 2.451 0.666 0.698 1.039 2.043 1.473 2.912-0.09-1.769 2.485 1.045 2.879 1.438 0.608-0.608 1.22-1.22 1.827-1.826 0.304-0.304 0.604-0.604 0.905-0.905 0.244-0.245-0.028-0.315-0.216-0.579-1.016-1.42 1.593-1.007 2.386-1.007 1.498 0 2.637 0.391 3.732 1.439C76.322 51.74 77.753 53.287 78.073 53.609z" data-fill-palette-color="accent"></path><path fill="#89939e" d="M52.289 37.419c-0.318 0.32-0.64 0.639-0.958 0.96-0.328 0.12-0.87 0.143-0.89 0.521-0.024 0.467-0.045 0.931-0.07 1.398 0.627-0.313 1.254-0.627 1.88-0.939C52.451 39.258 52.289 37.697 52.289 37.419z" data-fill-palette-color="accent"></path><path fill="#89939e" d="M55.143 35.98c0.357 0 0.984 0.2 0.984-0.225 0-0.009 0-0.019 0-0.027 0.069 0.137 0.193 0.223 0.386 0.241-0.115 0.484-0.241 0.968-0.386 1.451 0.438-0.438 0.874-0.875 1.313-1.314 0.294-0.294 0.125-1.03 0.125-1.42 0-0.068 0-0.137 0-0.206 0-0.938 0-1.878 0-2.817-0.027 0.055-0.075 0.144-0.132 0.248-0.018-0.203-0.027-0.402-0.048-0.607-0.056 0.337-0.111 0.671-0.167 1.006-0.368 0.688-0.897 1.733-1.092 2.534 0-0.121 0-0.242 0-0.363 0-0.938 0-1.878 0-2.817C55.836 32.244 53.612 35.98 55.143 35.98z" data-fill-palette-color="accent"></path><path fill="#89939e" d="M68.034 58.973c0.94-0.157 1.805-0.756 2.485-1.405-1.067-0.355-2.131-0.711-3.199-1.066-1.194-0.398-1.197-0.527-1.775-1.686-0.453-0.909-0.766-1.549-1.471-2.254-0.515-0.515-2.19-1.66-2.19-2.415 0-1.149 0.223-1.214-0.853-1.214-1.348 0-2.695 0-4.044 0-2.206 0-4.411 0-6.616 0-0.87 0.882-1.714 1.841-2.353 2.906-1.137 1.895 0.285 2.842 1.53 4.205 1.332 1.457 0.816 3.931 3.308 4.368 0.889 0.154 1.894 0.033 2.794 0.033 0.107 0 2.08-0.278 1.89-0.624 0.209 0.375 0.094 1.417 0.168 1.872 0.169 1.021 0.39 2.035 0.616 3.044 0.267 1.203 0.683 2.39 0.683 3.624 0 1.269 1.321 2.04 2.189 2.909 0.33 0.33 0.519 0.688 0.988 0.688 0.811 0 1.626 0 2.438 0 0.404 0-0.35-4.992 0.929-5.623 0.365-0.18 1.087 0.021 1.303-0.396 0.149-0.283-0.014-0.631 0.135-0.913 0.358-0.69 1.203-0.016 1.285-1.152 0.064-0.922-0.099-2.825-0.749-3.555C66.734 59.431 66.98 59.15 68.034 58.973z" data-fill-palette-color="accent"></path><path fill="#89939e" d="M46.035 28.767c-0.732-0.723-1.521-1.408-2.367-1.996-1.143-0.794-2.004-0.865-3.372-0.865-0.654 0-1.321-0.045-1.973 0.008-0.281 0.023-0.172 0.337-0.253 0.545-0.491 1.256-2.532 2.765-3.531 3.764 1.382 0 2.153 2.867 2.677 3.915 0.315 0.629 0.202 1.283 0.202 1.986 0 1.029-0.089 1.207 0.622 1.918 0.706 0.706 0.646 0.989 1.343 0.292 0.701-0.701 1.401-1.401 2.101-2.101 0.46-0.462 0.251-1.21 0.251-1.836 0-0.924-0.328-1.295 0.607-1.295 0.718 0 1.392 0.064 1.97-0.432 0.438-0.378 0.779-0.854 1.381-0.973 0.668-0.132 2.08-0.371 1.798-1.474C47.377 29.776 46.377 29.105 46.035 28.767z" data-fill-palette-color="accent"></path></svg></g></svg></g><g><rect width="1.4516575730958579" height="6.621238740072398" y="142.0298977864165" x="298.76870781752103" fill="#89939e" data-fill-palette-color="secondary"></rect><rect width="1.4516575730958579" height="6.621238740072398" y="142.0298977864165" x="97.27723460938303" fill="#89939e" data-fill-palette-color="secondary"></rect></g></svg></g><defs></defs></svg><rect width="328.3869430117053" height="247.2" fill="none" stroke="none" visibility="hidden"></rect></g></svg></g></svg>